# xmcd CD database file
#
# Track frame offsets:
#	150
#	27411
#	53298
#	80351
#	99408
#	124129
#	146490
#	167281
#	189242
#	209901
#	229572
#	248940
#	266362
#	280712
#	298676
#
# Disc length: 4205 seconds
#
# Revision: 0
# Processed by: cddbd v1.5.2PL0 Copyright (c) Steve Scherf et al.
# Submitted via: CDex 1.51
#
DISCID=c9106b0f
DTITLE=刀郎 - 刀郎3
DYEAR=2006
DGENRE=Country
TTITLE0=世界如此寂寞
TTITLE1=西海情歌
TTITLE2=得令哈一夜
TTITLE3=花瓣下的種子
TTITLE4=孤獨的牧羊人
TTITLE5=手心理的溫柔
TTITLE6=朝聖者的腳步
TTITLE7=真愛的胸懷
TTITLE8=山海天
TTITLE9=高原的回憶
TTITLE10=KONE-羅密歐&茱麗葉
TTITLE11=于浩威-NANA
TTITLE12=蔡旻佑-夢不落帝國
TTITLE13=郭富城-愛情
TTITLE14=吳克群-將軍令
EXTD=YEAR: 2006
EXTT0=
EXTT1=
EXTT2=
EXTT3=
EXTT4=
EXTT5=
EXTT6=
EXTT7=
EXTT8=
EXTT9=
EXTT10=
EXTT11=
EXTT12=
EXTT13=
EXTT14=
PLAYORDER=
